<?xml version="1.0" standalone="no"?>
<!DOCTYPE svg PUBLIC "-//W3C//DTD SVG 20010904//EN"
 "http://www.w3.org/TR/2001/REC-SVG-20010904/DTD/svg10.dtd">
<svg version="1.0" xmlns="http://www.w3.org/2000/svg"
 width="640.000000pt" height="640.000000pt" viewBox="0 0 640.000000 640.000000"
 preserveAspectRatio="xMidYMid meet">

<g transform="translate(0.000000,640.000000) scale(0.100000,-0.100000)"
fill="#000000" stroke="none">
<path d="M3085 4510 c-60 -21 -189 -66 -285 -100 -96 -33 -250 -86 -341 -116
l-166 -54 -6 -408 c-4 -224 -10 -423 -15 -442 l-9 -35 -8 47 c-4 26 -10 230
-14 454 l-6 407 -38 13 -38 13 4 -597 c3 -526 5 -604 20 -654 107 -358 362
-609 872 -860 l147 -72 183 92 c321 163 539 326 659 495 98 139 147 246 177
392 17 81 19 143 19 644 l0 554 -31 -7 c-17 -3 -35 -6 -40 -6 -5 0 -9 -60 -9
-133 0 -260 -13 -737 -21 -737 -13 0 -22 144 -28 490 l-6 345 -165 57 c-91 32
-293 103 -450 158 -157 55 -288 100 -290 99 -3 0 -54 -18 -115 -39z m225 -180
c36 -6 54 -18 92 -59 51 -56 65 -101 53 -173 -8 -46 -76 -128 -129 -155 -52
-27 -199 -73 -266 -84 -36 -5 -72 -12 -81 -15 -20 -5 -162 124 -185 168 -9 17
-12 38 -8 51 11 36 103 193 124 212 52 47 281 78 400 55z m362 -61 c148 -58
254 -148 309 -264 33 -69 35 -85 14 -125 -20 -38 -36 -38 -82 3 -36 31 -159
127 -288 225 -60 46 -94 103 -95 158 0 54 9 54 142 3z m-979 -350 c13 -6 42
-38 64 -72 71 -107 78 -126 75 -213 -2 -40 -3 -42 -44 -52 -56 -15 -152 -73
-206 -125 -58 -56 -95 -114 -116 -181 -16 -50 -19 -54 -37 -43 -20 12 -59 106
-80 190 -15 60 -7 213 15 283 31 101 82 145 231 201 71 26 68 26 98 12z m1291
-202 c44 -58 87 -167 93 -238 8 -90 -12 -192 -49 -259 -52 -94 -43 -90 -200
-90 -166 0 -156 -7 -238 155 -58 116 -62 140 -35 200 100 220 114 244 147 249
54 9 99 13 180 14 76 2 77 2 102 -31z m-682 -357 c36 -5 77 -14 90 -20 36 -17
168 -229 168 -270 0 -36 -105 -256 -133 -278 -27 -21 -140 -52 -191 -52 -70 0
-203 25 -231 44 -53 35 -152 245 -140 295 11 45 95 205 122 233 25 26 74 42
163 51 65 7 85 7 152 -3z m-645 -316 c33 -12 53 -31 94 -87 29 -40 72 -98 96
-130 24 -33 43 -69 43 -81 0 -12 -16 -55 -36 -96 -33 -68 -35 -78 -24 -108 6
-19 9 -36 6 -39 -16 -16 -239 141 -315 222 -70 75 -131 187 -131 240 0 43 21
96 48 123 l20 20 79 -24 c43 -13 97 -31 120 -40z m1364 -86 c-26 -62 -104
-193 -88 -148 25 72 90 215 99 221 22 14 20 2 -11 -73z m-191 -271 c-88 -85
-166 -142 -323 -236 -122 -74 -289 -161 -308 -161 -29 0 -373 189 -346 190 4
0 81 -36 171 -80 90 -44 169 -80 175 -80 7 0 67 25 134 56 120 55 123 57 222
161 96 103 104 108 220 164 66 32 122 58 125 58 3 0 -29 -32 -70 -72z"/>
<path d="M2208 4373 c7 -3 16 -2 19 1 4 3 -2 6 -13 5 -11 0 -14 -3 -6 -6z"/>
<path d="M4300 4336 c0 -2 8 -10 18 -17 15 -13 16 -12 3 4 -13 16 -21 21 -21
13z"/>
<path d="M4335 3745 c0 -297 1 -417 2 -267 2 150 2 393 0 540 -1 147 -2 24 -2
-273z"/>
<path d="M2062 3365 c0 -16 2 -22 5 -12 2 9 2 23 0 30 -3 6 -5 -1 -5 -18z"/>
<path d="M1670 2040 c19 -13 30 -13 30 0 0 6 -10 10 -22 10 -19 0 -20 -2 -8
-10z"/>
<path d="M2208 1883 c7 -3 16 -2 19 1 4 3 -2 6 -13 5 -11 0 -14 -3 -6 -6z"/>
<path d="M2298 1883 c7 -3 16 -2 19 1 4 3 -2 6 -13 5 -11 0 -14 -3 -6 -6z"/>
<path d="M2688 1883 c7 -3 16 -2 19 1 4 3 -2 6 -13 5 -11 0 -14 -3 -6 -6z"/>
<path d="M3090 1882 c0 -4 11 -9 25 -10 14 -1 25 3 25 8 0 6 -11 10 -25 10
-14 0 -25 -4 -25 -8z"/>
<path d="M3688 1883 c6 -2 18 -2 25 0 6 3 1 5 -13 5 -14 0 -19 -2 -12 -5z"/>
<path d="M3790 1879 c19 -6 45 -20 58 -32 19 -18 22 -18 22 -3 0 17 -35 35
-85 42 -27 3 -26 3 5 -7z"/>
<path d="M4243 1883 c9 -2 23 -2 30 0 6 3 -1 5 -18 5 -16 0 -22 -2 -12 -5z"/>
<path d="M4328 1883 c7 -3 16 -2 19 1 4 3 -2 6 -13 5 -11 0 -14 -3 -6 -6z"/>
<path d="M4605 1880 c-4 -6 8 -10 29 -10 20 0 36 5 36 10 0 6 -13 10 -29 10
-17 0 -33 -4 -36 -10z"/>
<path d="M4770 1880 c-11 -7 -5 -8 20 -4 43 8 51 14 19 14 -13 0 -31 -5 -39
-10z"/>
<path d="M2108 1846 c-65 -50 -102 -153 -79 -221 10 -28 10 -27 5 11 -11 88
37 183 114 224 21 10 30 19 21 20 -9 0 -36 -16 -61 -34z"/>
<path d="M2625 1871 c-11 -5 -29 -19 -40 -32 l-20 -24 20 17 c11 9 36 24 55
32 36 16 21 21 -15 7z"/>
<path d="M2830 1876 c0 -2 9 -6 20 -9 11 -3 18 -1 14 4 -5 9 -34 13 -34 5z"/>
<path d="M3373 1873 c9 -2 25 -2 35 0 9 3 1 5 -18 5 -19 0 -27 -2 -17 -5z"/>
<path d="M3461 1819 c1 -35 3 -55 6 -44 2 11 8 34 13 52 6 24 4 35 -6 44 -12
10 -14 1 -13 -52z"/>
<path d="M3918 1873 c12 -2 30 -2 40 0 9 3 -1 5 -23 4 -22 0 -30 -2 -17 -4z"/>
<path d="M4700 1838 l0 -31 20 26 c11 14 20 27 20 29 0 2 -9 4 -20 5 -16 1
-20 -4 -20 -29z"/>
<path d="M2688 1783 c7 -3 16 -2 19 1 4 3 -2 6 -13 5 -11 0 -14 -3 -6 -6z"/>
<path d="M4199 1753 c-13 -16 -12 -17 4 -4 16 13 21 21 13 21 -2 0 -10 -8 -17
-17z"/>
<path d="M2640 1749 c0 -6 -9 -8 -21 -4 -14 5 -19 3 -15 -4 4 -6 2 -19 -3 -29
-9 -17 -7 -18 27 -13 20 4 37 12 36 19 -3 36 -5 42 -14 42 -5 0 -10 -5 -10
-11z"/>
<path d="M2345 1720 c-3 -5 -1 -10 4 -10 6 0 11 5 11 10 0 6 -2 10 -4 10 -3 0
-8 -4 -11 -10z"/>
<path d="M2278 1623 c6 -2 18 -2 25 0 6 3 1 5 -13 5 -14 0 -19 -2 -12 -5z"/>
<path d="M2393 1623 c15 -2 37 -2 50 0 12 2 0 4 -28 4 -27 0 -38 -2 -22 -4z"/>
<path d="M4399 1621 c7 -5 11 -13 7 -19 -3 -5 4 -12 17 -16 36 -10 50 -7 43 9
-3 8 2 19 12 24 13 8 3 10 -38 11 -35 0 -50 -3 -41 -9z"/>
<path d="M2405 1580 c3 -5 8 -10 11 -10 2 0 4 5 4 10 0 6 -5 10 -11 10 -5 0
-7 -4 -4 -10z"/>
<path d="M2718 1543 c7 -3 16 -2 19 1 4 3 -2 6 -13 5 -11 0 -14 -3 -6 -6z"/>
<path d="M4461 1524 c0 -11 3 -14 6 -6 3 7 2 16 -1 19 -3 4 -6 -2 -5 -13z"/>
<path d="M2820 1494 c0 -8 5 -12 10 -9 6 3 10 10 10 16 0 5 -4 9 -10 9 -5 0
-10 -7 -10 -16z"/>
<path d="M3335 1500 c-3 -5 -1 -10 4 -10 6 0 11 5 11 10 0 6 -2 10 -4 10 -3 0
-8 -4 -11 -10z"/>
<path d="M3461 1494 c0 -11 3 -14 6 -6 3 7 2 16 -1 19 -3 4 -6 -2 -5 -13z"/>
<path d="M4435 1490 c-3 -6 1 -7 9 -4 18 7 21 14 7 14 -6 0 -13 -4 -16 -10z"/>
<path d="M3768 1463 c6 -2 18 -2 25 0 6 3 1 5 -13 5 -14 0 -19 -2 -12 -5z"/>
<path d="M3620 1422 c0 -12 19 -26 26 -19 2 2 -2 10 -11 17 -9 8 -15 8 -15 2z"/>
<path d="M3569 1383 c-13 -16 -12 -17 4 -4 16 13 21 21 13 21 -2 0 -10 -8 -17
-17z"/>
</g>
</svg>
